<?xml version="1.0" encoding="iso-8859-1"?>
<!-- Generator: Adobe Illustrator 19.0.0, SVG Export Plug-In . SVG Version: 6.00 Build 0)  -->
<svg version="1.1" id="Layer_1" xmlns="http://www.w3.org/2000/svg" xmlns:xlink="http://www.w3.org/1999/xlink" x="0px" y="0px"
	 viewBox="0 0 512.002 512.002" style="enable-background:new 0 0 512.002 512.002;" xml:space="preserve">
<g>
	<g>
		<path d="M409.601,25.602c-47.616,0-86.963,32.751-98.381,76.8H188.545L89.9,3.757c-3.422-3.413-8.474-4.651-13.099-3.089
			l-76.8,25.6l8.098,24.277l69.299-23.091l74.948,74.948H76.801c-10.709,0-20.292,6.673-24.013,16.717
			c-3.721,10.052-0.785,21.35,7.347,28.322l183.066,156.911v182.05h-64c-7.074,0-12.8,5.726-12.8,12.8c0,7.074,5.726,12.8,12.8,12.8
			h153.6c7.074,0,12.8-5.726,12.8-12.8c0-7.074-5.726-12.8-12.8-12.8h-64v-182.05l97.604-83.661
			c13.124,6.178,27.725,9.711,43.196,9.711c56.55,0,102.4-45.85,102.4-102.4S466.151,25.602,409.601,25.602z M256.001,281.602
			l-179.2-153.6h101.146h36.198h221.056L256.001,281.602z M409.601,204.802c-7.279,0-14.165-1.331-20.787-3.319l63.053-54.042
			c8.132-6.972,11.068-18.27,7.347-28.322c-3.721-10.044-13.303-16.717-24.013-16.717H337.46c10.581-29.747,38.801-51.2,72.141-51.2
			c42.351,0,76.8,34.449,76.8,76.8S451.952,204.802,409.601,204.802z"/>
	</g>
</g>
<g>
</g>
<g>
</g>
<g>
</g>
<g>
</g>
<g>
</g>
<g>
</g>
<g>
</g>
<g>
</g>
<g>
</g>
<g>
</g>
<g>
</g>
<g>
</g>
<g>
</g>
<g>
</g>
<g>
</g>
</svg>
