<?xml version="1.0" encoding="iso-8859-1"?>
<!-- Generator: Adobe Illustrator 19.0.0, SVG Export Plug-In . SVG Version: 6.00 Build 0)  -->
<svg version="1.1" id="Layer_1" xmlns="http://www.w3.org/2000/svg" xmlns:xlink="http://www.w3.org/1999/xlink" x="0px" y="0px"
	 viewBox="0 0 512 512" style="enable-background:new 0 0 512 512;" xml:space="preserve">
<g>
	<g>
		<path d="M409.6,76.8H384V25.6c0-8.09-3.823-15.71-10.317-20.54C369.212,1.732,363.844,0,358.4,0c-2.466,0-4.941,0.358-7.356,1.084
			l-256,76.8C84.215,81.126,76.8,91.093,76.8,102.4v384c0,14.14,11.46,25.6,25.6,25.6h307.2c14.14,0,25.6-11.46,25.6-25.6v-384
			C435.2,88.26,423.74,76.8,409.6,76.8z M358.4,25.6v51.2H187.733L358.4,25.6z M409.6,486.4H102.4v-384h307.2V486.4z"/>
	</g>
</g>
<g>
	<g>
		<path d="M256,166.4c-70.69,0-128,57.31-128,128s57.31,128,128,128s128-57.31,128-128S326.69,166.4,256,166.4z M256,192.64
			c5.649,4.446,15.215,22.127,20.915,51.405c-6.844-0.452-13.747-0.845-20.915-0.845c-7.168,0-14.071,0.393-20.915,0.845
			C240.785,214.776,250.351,197.086,256,192.64z M222.626,198.059c-6.118,13.261-11.034,29.773-14.097,48.879
			c-19.106,3.063-35.618,7.979-48.879,14.097C169.924,231.509,193.109,208.324,222.626,198.059z M154.24,294.4
			c4.446-5.649,22.135-15.215,51.405-20.915c-0.452,6.844-0.845,13.747-0.845,20.915c0,7.168,0.393,14.071,0.845,20.915
			C176.375,309.615,158.686,300.049,154.24,294.4z M159.659,327.774c13.261,6.118,29.773,11.034,48.879,14.097
			c3.063,19.106,7.979,35.618,14.097,48.879C193.109,380.476,169.924,357.291,159.659,327.774z M256,396.16
			c-5.649-4.446-15.215-22.127-20.915-51.405c6.844,0.452,13.747,0.845,20.915,0.845c7.168,0,14.071-0.393,20.915-0.845
			C271.215,374.025,261.649,391.714,256,396.16z M280.499,318.899C272.819,319.556,264.755,320,256,320
			c-8.755,0-16.819-0.444-24.499-1.101c-0.657-7.68-1.101-15.744-1.101-24.499s0.444-16.819,1.101-24.499
			c7.68-0.657,15.744-1.101,24.499-1.101c8.755,0,16.819,0.444,24.499,1.101c0.657,7.68,1.101,15.744,1.101,24.499
			S281.156,311.219,280.499,318.899z M352.341,261.026c-13.261-6.118-29.773-11.034-48.879-14.097
			c-3.063-19.106-7.979-35.618-14.097-48.879C318.891,208.324,342.076,231.509,352.341,261.026z M289.374,390.741
			c6.118-13.261,11.034-29.773,14.097-48.879c19.106-3.063,35.618-7.979,48.879-14.097
			C342.076,357.291,318.891,380.476,289.374,390.741z M306.355,315.315c0.452-6.844,0.845-13.747,0.845-20.915
			c0-7.168-0.393-14.071-0.845-20.915c29.269,5.7,46.959,15.266,51.405,20.915C353.314,300.049,335.625,309.615,306.355,315.315z"/>
	</g>
</g>
<g>
</g>
<g>
</g>
<g>
</g>
<g>
</g>
<g>
</g>
<g>
</g>
<g>
</g>
<g>
</g>
<g>
</g>
<g>
</g>
<g>
</g>
<g>
</g>
<g>
</g>
<g>
</g>
<g>
</g>
</svg>
